<?xml version="1.0" standalone="no"?>
<!DOCTYPE svg PUBLIC "-//W3C//DTD SVG 20010904//EN"
 "http://www.w3.org/TR/2001/REC-SVG-20010904/DTD/svg10.dtd">
<svg version="1.0" xmlns="http://www.w3.org/2000/svg"
 width="32.000000px" height="16.000000px" viewBox="0 0 1280.000000 640.000000"
 preserveAspectRatio="xMidYMid meet">
<g transform="translate(0.000000,640.000000) scale(0.100000,-0.100000)"
fill="#000000" stroke="none">
<path d="M12425 6088 c-585 -91 -1484 -245 -2335 -398 -3402 -612 -4253 -742
-5955 -910 -825 -81 -1137 -117 -1455 -166 -875 -134 -1518 -369 -2020 -737
-52 -39 -117 -91 -145 -116 -248 -230 -425 -538 -480 -838 -9 -48 -20 -110
-25 -136 -18 -90 -12 -154 32 -342 67 -290 312 -558 698 -767 210 -114 465
-203 945 -333 176 -47 392 -108 480 -135 88 -26 248 -72 355 -100 554 -146
906 -283 1178 -459 85 -55 86 -56 96 -143 8 -68 49 -143 97 -178 132 -95 351
-33 366 104 10 82 -25 133 -200 295 -195 181 -310 262 -522 367 -206 101 -413
172 -820 279 -395 104 -517 138 -675 190 -74 24 -227 69 -340 99 -394 106
-576 169 -770 266 -280 140 -509 357 -565 533 -89 278 -24 579 186 868 80 110
250 277 369 362 293 209 878 430 1455 550 419 88 755 133 1550 207 638 60 782
75 1262 135 1416 178 2274 315 4487 715 2171 392 2747 492 2761 479 24 -23
-128 -281 -257 -434 -279 -332 -761 -592 -1389 -750 -148 -37 -860 -181 -1209
-245 -854 -154 -1818 -261 -2580 -285 -102 -3 -214 -8 -248 -11 l-64 -6 4 -82
c2 -70 7 -89 31 -124 37 -56 105 -90 210 -103 106 -14 216 -6 517 37 173 25
292 36 405 39 376 8 1292 137 2164 305 173 33 319 60 323 60 44 0 -138 -134
-337 -248 -223 -127 -566 -278 -830 -364 -485 -158 -823 -231 -1885 -408 -437
-73 -606 -103 -747 -135 -105 -24 -214 -34 -623 -55 -277 -15 -457 -57 -527
-122 l-23 -21 27 -49 c33 -61 80 -103 153 -137 52 -25 63 -26 210 -25 163 0
144 -3 550 84 102 22 192 33 305 40 179 10 329 33 998 155 814 148 857 155
857 139 0 -12 -86 -130 -154 -212 -327 -392 -828 -708 -1502 -947 -167 -60
-501 -164 -607 -189 -336 -81 -867 -146 -1193 -146 -94 0 -94 1 -94 -106 0
-90 30 -140 105 -179 55 -28 67 -30 188 -34 149 -4 200 3 552 68 143 27 295
54 339 61 138 21 474 109 686 180 910 303 1592 782 2072 1453 78 108 116 139
279 226 114 60 246 114 529 216 244 88 395 151 490 203 179 98 340 237 443
384 94 132 308 254 887 505 380 164 591 289 761 451 160 152 331 382 437 589
50 98 112 284 112 338 0 41 -55 147 -90 173 -67 50 -88 51 -285 20z"/>
</g>
</svg>
